STARTFONT 2.1
FONT -Adobe-ITC Souvenir-Light-R-Normal--12-120-75-75-P-68-ISO8859-1
SIZE 12 75 75
FONTBOUNDINGBOX 15 15 -1 -3
COMMENT +
COMMENT Copyright (c) 1984, 1987, 1991 Adobe Systems Incorporated.  
COMMENT All Rights Reserved.
COMMENT 
COMMENT Copyright (c) 1988, 1991 Digital Equipment Corporation.  
COMMENT All Rights Reserved.  Unpublished rights reserved under the 
COMMENT copyright laws of the United States.
COMMENT 
COMMENT Adobe is a registered trademark of Adobe Systems Incorporated.
COMMENT 
COMMENT ITC Souvenir is a registered trademark of International Typeface 
COMMENT Corporation.
COMMENT  
COMMENT Permission to use these trademarks is hereby granted only in 
COMMENT association with the images described in this file.
COMMENT -
STARTPROPERTIES 28
FOUNDRY "Adobe"
FAMILY_NAME "ITC Souvenir"
WEIGHT_NAME "Light"
SLANT "R"
SETWIDTH_NAME "Normal"
ADD_STYLE_NAME ""
PIXEL_SIZE 12
POINT_SIZE 120
RESOLUTION_X 75
RESOLUTION_Y 75
SPACING "P"
AVERAGE_WIDTH 68
CHARSET_REGISTRY "ISO8859"
CHARSET_ENCODING "1"
CAP_HEIGHT 9
X_HEIGHT 6
FONT_ASCENT 11
FONT_DESCENT 3
FACE_NAME "ITC Souvenir Light"
COPYRIGHT "Copyright (c) 1984, 1987 Adobe Systems Incorporated. All Rights Reserved. Copyright (c) 1988, 1991 Digital Equipment Corporation. All Rights Reserved."
NOTICE "ITC Souvenir is a registered trademark of International Typeface Corporation.  "
_DEC_DEVICE_FONTNAMES "PS=Souvenir-Light"
_DEC_PRODUCTINFO "DECwindows Fonts V2.2, 07-Nov-1991"
DEFAULT_CHAR 32
RELATIVE_SETWIDTH 50
RELATIVE_WEIGHT 30
CHARSET_COLLECTIONS "ASCII ISO8859-1 ADOBE-STANDARD"
FULL_NAME "ITC Souvenir Light"
ENDPROPERTIES
CHARS 229
STARTCHAR A
ENCODING 65
SWIDTH 720 0
DWIDTH 9 0
BBX 7 9 1 0
BITMAP
10
28
28
44
44
7C
82
82
82
ENDCHAR
STARTCHAR AE
ENCODING 198
SWIDTH 960 0
DWIDTH 12 0
BBX 10 9 1 0
BITMAP
1FC0
2800
2800
4800
4FC0
7800
8800
8800
8FC0
ENDCHAR
STARTCHAR Aacute
ENCODING 193
SWIDTH 720 0
DWIDTH 9 0
BBX 7 12 1 0
BITMAP
08
10
00
10
28
28
44
44
7C
82
82
82
ENDCHAR
STARTCHAR Acircumflex
ENCODING 194
SWIDTH 720 0
DWIDTH 9 0
BBX 7 12 1 0
BITMAP
10
28
00
10
28
28
44
44
7C
82
82
82
ENDCHAR
STARTCHAR Adieresis
ENCODING 196
SWIDTH 720 0
DWIDTH 9 0
BBX 7 11 1 0
BITMAP
28
00
10
28
28
44
44
7C
82
82
82
ENDCHAR
STARTCHAR Agrave
ENCODING 192
SWIDTH 720 0
DWIDTH 9 0
BBX 7 12 1 0
BITMAP
20
10
00
10
28
28
44
44
7C
82
82
82
ENDCHAR
STARTCHAR Aring
ENCODING 197
SWIDTH 720 0
DWIDTH 9 0
BBX 7 12 1 0
BITMAP
10
28
10
10
28
28
44
44
7C
82
82
82
ENDCHAR
STARTCHAR Atilde
ENCODING 195
SWIDTH 720 0
DWIDTH 9 0
BBX 7 12 1 0
BITMAP
14
28
00
10
28
28
44
44
7C
82
82
82
ENDCHAR
STARTCHAR B
ENCODING 66
SWIDTH 680 0
DWIDTH 8 0
BBX 6 9 1 0
BITMAP
F8
84
84
88
B8
C4
84
84
F8
ENDCHAR
STARTCHAR C
ENCODING 67
SWIDTH 720 0
DWIDTH 9 0
BBX 7 9 1 0
BITMAP
3C
42
80
80
80
80
80
42
3C
ENDCHAR
STARTCHAR Ccedilla
ENCODING 199
SWIDTH 720 0
DWIDTH 9 0
BBX 7 12 1 -3
BITMAP
3C
42
80
80
80
80
80
42
3C
10
08
30
ENDCHAR
STARTCHAR D
ENCODING 68
SWIDTH 740 0
DWIDTH 9 0
BBX 7 9 1 0
BITMAP
F8
84
82
82
82
82
82
84
F8
ENDCHAR
STARTCHAR E
ENCODING 69
SWIDTH 600 0
DWIDTH 8 0
BBX 6 9 1 0
BITMAP
FC
80
80
80
FC
80
80
80
FC
ENDCHAR
STARTCHAR Eacute
ENCODING 201
SWIDTH 600 0
DWIDTH 8 0
BBX 6 12 1 0
BITMAP
08
10
00
FC
80
80
80
FC
80
80
80
FC
ENDCHAR
STARTCHAR Ecircumflex
ENCODING 202
SWIDTH 600 0
DWIDTH 8 0
BBX 6 12 1 0
BITMAP
10
28
00
FC
80
80
80
FC
80
80
80
FC
ENDCHAR
STARTCHAR Edieresis
ENCODING 203
SWIDTH 600 0
DWIDTH 8 0
BBX 6 11 1 0
BITMAP
28
00
FC
80
80
80
FC
80
80
80
FC
ENDCHAR
STARTCHAR Egrave
ENCODING 200
SWIDTH 600 0
DWIDTH 8 0
BBX 6 12 1 0
BITMAP
20
10
00
FC
80
80
80
FC
80
80
80
FC
ENDCHAR
STARTCHAR Eth
ENCODING 208
SWIDTH 740 0
DWIDTH 9 0
BBX 8 9 0 0
BITMAP
7C
42
41
41
F1
41
41
42
7C
ENDCHAR
STARTCHAR F
ENCODING 70
SWIDTH 560 0
DWIDTH 7 0
BBX 6 9 1 0
BITMAP
FC
80
80
80
F8
80
80
80
80
ENDCHAR
STARTCHAR G
ENCODING 71
SWIDTH 760 0
DWIDTH 10 0
BBX 8 9 1 0
BITMAP
3E
41
80
80
8F
81
81
41
3E
ENDCHAR
STARTCHAR H
ENCODING 72
SWIDTH 800 0
DWIDTH 9 0
BBX 7 9 1 0
BITMAP
82
82
82
82
FE
82
82
82
82
ENDCHAR
STARTCHAR I
ENCODING 73
SWIDTH 260 0
DWIDTH 3 0
BBX 1 9 1 0
BITMAP
80
80
80
80
80
80
80
80
80
ENDCHAR
STARTCHAR Iacute
ENCODING 205
SWIDTH 260 0
DWIDTH 3 0
BBX 2 12 1 0
BITMAP
40
80
00
80
80
80
80
80
80
80
80
80
ENDCHAR
STARTCHAR Icircumflex
ENCODING 206
SWIDTH 260 0
DWIDTH 3 0
BBX 3 12 0 0
BITMAP
40
A0
00
40
40
40
40
40
40
40
40
40
ENDCHAR
STARTCHAR Idieresis
ENCODING 207
SWIDTH 260 0
DWIDTH 3 0
BBX 3 11 0 0
BITMAP
A0
00
40
40
40
40
40
40
40
40
40
ENDCHAR
STARTCHAR Igrave
ENCODING 204
SWIDTH 260 0
DWIDTH 3 0
BBX 2 12 0 0
BITMAP
80
40
00
40
40
40
40
40
40
40
40
40
ENDCHAR
STARTCHAR J
ENCODING 74
SWIDTH 480 0
DWIDTH 7 0
BBX 5 9 1 0
BITMAP
08
08
08
08
08
08
88
88
70
ENDCHAR
STARTCHAR K
ENCODING 75
SWIDTH 700 0
DWIDTH 9 0
BBX 6 9 2 0
BITMAP
88
88
90
A0
D0
88
88
84
84
ENDCHAR
STARTCHAR L
ENCODING 76
SWIDTH 600 0
DWIDTH 7 0
BBX 5 9 1 0
BITMAP
80
80
80
80
80
80
80
80
F8
ENDCHAR
STARTCHAR Lslash
ENCODING -1
SWIDTH 600 0
DWIDTH 8 0
BBX 6 9 0 0
BITMAP
40
40
50
60
C0
40
40
40
7C
ENDCHAR
STARTCHAR M
ENCODING 77
SWIDTH 860 0
DWIDTH 11 0
BBX 9 9 1 0
BITMAP
8080
C180
C180
A280
A280
9480
9480
8880
8880
ENDCHAR
STARTCHAR N
ENCODING 78
SWIDTH 740 0
DWIDTH 9 0
BBX 7 9 1 0
BITMAP
82
C2
A2
A2
92
8A
8A
86
82
ENDCHAR
STARTCHAR Ntilde
ENCODING 209
SWIDTH 740 0
DWIDTH 9 0
BBX 7 12 1 0
BITMAP
14
28
00
82
C2
A2
A2
92
8A
8A
86
82
ENDCHAR
STARTCHAR O
ENCODING 79
SWIDTH 800 0
DWIDTH 10 0
BBX 8 9 1 0
BITMAP
3C
42
81
81
81
81
81
42
3C
ENDCHAR
STARTCHAR OE
ENCODING -1
SWIDTH 1180 0
DWIDTH 14 0
BBX 12 9 1 0
BITMAP
3BF0
4600
8200
8200
83F0
8200
8200
4600
3BF0
ENDCHAR
STARTCHAR Oacute
ENCODING 211
SWIDTH 800 0
DWIDTH 10 0
BBX 8 12 1 0
BITMAP
04
08
00
3C
42
81
81
81
81
81
42
3C
ENDCHAR
STARTCHAR Ocircumflex
ENCODING 212
SWIDTH 800 0
DWIDTH 10 0
BBX 8 12 1 0
BITMAP
08
14
00
3C
42
81
81
81
81
81
42
3C
ENDCHAR
STARTCHAR Odieresis
ENCODING 214
SWIDTH 800 0
DWIDTH 10 0
BBX 8 11 1 0
BITMAP
14
00
3C
42
81
81
81
81
81
42
3C
ENDCHAR
STARTCHAR Ograve
ENCODING 210
SWIDTH 800 0
DWIDTH 10 0
BBX 8 12 1 0
BITMAP
20
10
00
3C
42
81
81
81
81
81
42
3C
ENDCHAR
STARTCHAR Oslash
ENCODING 216
SWIDTH 800 0
DWIDTH 10 0
BBX 10 11 0 -1
BITMAP
0040
1E80
2100
4280
4480
4480
4880
5080
2100
5E00
8000
ENDCHAR
STARTCHAR Otilde
ENCODING 213
SWIDTH 800 0
DWIDTH 10 0
BBX 8 12 1 0
BITMAP
14
28
00
3C
42
81
81
81
81
81
42
3C
ENDCHAR
STARTCHAR P
ENCODING 80
SWIDTH 620 0
DWIDTH 8 0
BBX 6 9 1 0
BITMAP
F8
84
84
84
F8
80
80
80
80
ENDCHAR
STARTCHAR Q
ENCODING 81
SWIDTH 800 0
DWIDTH 10 0
BBX 9 10 1 -1
BITMAP
3C00
4200
8100
8100
8100
8900
8500
4200
3E00
0180
ENDCHAR
STARTCHAR R
ENCODING 82
SWIDTH 680 0
DWIDTH 8 0
BBX 6 9 1 0
BITMAP
F8
84
84
88
B8
C8
84
84
84
ENDCHAR
STARTCHAR S
ENCODING 83
SWIDTH 600 0
DWIDTH 8 0
BBX 6 9 1 0
BITMAP
78
84
80
60
18
04
84
84
78
ENDCHAR
STARTCHAR Scaron
ENCODING -1
SWIDTH 600 0
DWIDTH 8 0
BBX 6 9 1 0
BITMAP
50
20
00
78
84
70
08
84
78
ENDCHAR
STARTCHAR T
ENCODING 84
SWIDTH 640 0
DWIDTH 7 0
BBX 7 9 0 0
BITMAP
FE
10
10
10
10
10
10
10
10
ENDCHAR
STARTCHAR Thorn
ENCODING 222
SWIDTH 620 0
DWIDTH 8 0
BBX 6 9 1 0
BITMAP
80
80
F8
84
84
84
F8
80
80
ENDCHAR
STARTCHAR U
ENCODING 85
SWIDTH 760 0
DWIDTH 9 0
BBX 7 9 1 0
BITMAP
82
82
82
82
82
82
82
82
7C
ENDCHAR
STARTCHAR Uacute
ENCODING 218
SWIDTH 760 0
DWIDTH 9 0
BBX 7 12 1 0
BITMAP
08
10
00
82
82
82
82
82
82
82
82
7C
ENDCHAR
STARTCHAR Ucircumflex
ENCODING 219
SWIDTH 760 0
DWIDTH 9 0
BBX 7 12 1 0
BITMAP
10
28
00
82
82
82
82
82
82
82
82
7C
ENDCHAR
STARTCHAR Udieresis
ENCODING 220
SWIDTH 760 0
DWIDTH 9 0
BBX 7 11 1 0
BITMAP
28
00
82
82
82
82
82
82
82
82
7C
ENDCHAR
STARTCHAR Ugrave
ENCODING 217
SWIDTH 760 0
DWIDTH 9 0
BBX 7 12 1 0
BITMAP
20
10
00
82
82
82
82
82
82
82
82
7C
ENDCHAR
STARTCHAR V
ENCODING 86
SWIDTH 700 0
DWIDTH 9 0
BBX 7 9 1 0
BITMAP
82
82
44
44
44
28
28
10
10
ENDCHAR
STARTCHAR W
ENCODING 87
SWIDTH 940 0
DWIDTH 11 0
BBX 9 9 1 0
BITMAP
8880
8880
8880
4900
5500
5500
2200
2200
2200
ENDCHAR
STARTCHAR X
ENCODING 88
SWIDTH 700 0
DWIDTH 9 0
BBX 7 9 1 0
BITMAP
82
44
44
28
10
28
44
44
82
ENDCHAR
STARTCHAR Y
ENCODING 89
SWIDTH 700 0
DWIDTH 9 0
BBX 7 9 1 0
BITMAP
82
82
44
44
28
10
10
10
10
ENDCHAR
STARTCHAR Yacute
ENCODING 221
SWIDTH 700 0
DWIDTH 9 0
BBX 7 12 1 0
BITMAP
08
10
00
82
82
44
44
28
10
10
10
10
ENDCHAR
STARTCHAR Ydieresis
ENCODING -1
SWIDTH 700 0
DWIDTH 9 0
BBX 7 9 1 0
BITMAP
28
00
00
82
44
28
10
10
10
ENDCHAR
STARTCHAR Z
ENCODING 90
SWIDTH 580 0
DWIDTH 8 0
BBX 6 9 1 0
BITMAP
FC
04
04
08
10
20
40
80
FC
ENDCHAR
STARTCHAR Zcaron
ENCODING -1
SWIDTH 580 0
DWIDTH 8 0
BBX 6 9 1 0
BITMAP
50
20
00
FC
08
10
20
40
FC
ENDCHAR
STARTCHAR a
ENCODING 97
SWIDTH 500 0
DWIDTH 6 0
BBX 5 6 1 0
BITMAP
E0
10
70
90
90
68
ENDCHAR
STARTCHAR aacute
ENCODING 225
SWIDTH 500 0
DWIDTH 6 0
BBX 5 9 1 0
BITMAP
20
40
00
E0
10
70
90
90
68
ENDCHAR
STARTCHAR acircumflex
ENCODING 226
SWIDTH 500 0
DWIDTH 6 0
BBX 5 9 1 0
BITMAP
40
A0
00
E0
10
70
90
90
68
ENDCHAR
STARTCHAR acute
ENCODING 180
SWIDTH 320 0
DWIDTH 4 0
BBX 2 2 1 8
BITMAP
40
80
ENDCHAR
STARTCHAR adieresis
ENCODING 228
SWIDTH 500 0
DWIDTH 6 0
BBX 5 8 1 0
BITMAP
A0
00
E0
10
70
90
90
68
ENDCHAR
STARTCHAR ae
ENCODING 230
SWIDTH 800 0
DWIDTH 10 0
BBX 8 6 1 0
BITMAP
76
09
79
8E
88
77
ENDCHAR
STARTCHAR agrave
ENCODING 224
SWIDTH 500 0
DWIDTH 6 0
BBX 5 9 1 0
BITMAP
40
20
00
E0
10
70
90
90
68
ENDCHAR
STARTCHAR ampersand
ENCODING 38
SWIDTH 800 0
DWIDTH 9 0
BBX 7 9 1 0
BITMAP
30
48
48
30
50
8A
84
8C
72
ENDCHAR
STARTCHAR aring
ENCODING 229
SWIDTH 500 0
DWIDTH 6 0
BBX 5 10 1 0
BITMAP
60
90
60
00
E0
10
70
90
90
68
ENDCHAR
STARTCHAR asciicircum
ENCODING 94
SWIDTH 660 0
DWIDTH 8 0
BBX 5 6 1 3
BITMAP
20
20
50
50
88
88
ENDCHAR
STARTCHAR asciitilde
ENCODING 126
SWIDTH 660 0
DWIDTH 8 0
BBX 6 2 1 3
BITMAP
64
98
ENDCHAR
STARTCHAR asterisk
ENCODING 42
SWIDTH 360 0
DWIDTH 5 0
BBX 3 3 1 6
BITMAP
A0
40
A0
ENDCHAR
STARTCHAR at
ENCODING 64
SWIDTH 820 0
DWIDTH 10 0
BBX 10 10 0 -1
BITMAP
1F00
6080
4D40
9240
A240
A240
A680
9B00
4000
3E00
ENDCHAR
STARTCHAR atilde
ENCODING 227
SWIDTH 500 0
DWIDTH 6 0
BBX 5 9 1 0
BITMAP
50
A0
00
E0
10
70
90
90
68
ENDCHAR
STARTCHAR b
ENCODING 98
SWIDTH 520 0
DWIDTH 7 0
BBX 5 9 1 0
BITMAP
80
80
80
B0
C8
88
88
88
70
ENDCHAR
STARTCHAR backslash
ENCODING 92
SWIDTH 600 0
DWIDTH 8 0
BBX 4 9 2 0
BITMAP
80
80
40
40
20
20
20
10
10
ENDCHAR
STARTCHAR bar
ENCODING 124
SWIDTH 660 0
DWIDTH 8 0
BBX 1 9 3 0
BITMAP
80
80
80
80
80
80
80
80
80
ENDCHAR
STARTCHAR braceleft
ENCODING 123
SWIDTH 300 0
DWIDTH 4 0
BBX 4 12 0 -3
BITMAP
30
40
40
40
40
80
40
40
40
40
40
30
ENDCHAR
STARTCHAR braceright
ENCODING 125
SWIDTH 300 0
DWIDTH 4 0
BBX 4 12 0 -3
BITMAP
C0
20
20
20
20
10
20
20
20
20
20
C0
ENDCHAR
STARTCHAR bracketleft
ENCODING 91
SWIDTH 240 0
DWIDTH 3 0
BBX 2 12 1 -3
BITMAP
C0
80
80
80
80
80
80
80
80
80
80
C0
ENDCHAR
STARTCHAR bracketright
ENCODING 93
SWIDTH 240 0
DWIDTH 3 0
BBX 2 12 0 -3
BITMAP
C0
40
40
40
40
40
40
40
40
40
40
C0
ENDCHAR
STARTCHAR breve
ENCODING -1
SWIDTH 440 0
DWIDTH 6 0
BBX 4 2 1 7
BITMAP
90
60
ENDCHAR
STARTCHAR brokenbar
ENCODING 166
SWIDTH 660 0
DWIDTH 8 0
BBX 1 9 3 0
BITMAP
80
80
80
00
00
80
80
80
80
ENDCHAR
STARTCHAR bullet
ENCODING -1
SWIDTH 460 0
DWIDTH 6 0
BBX 4 4 1 2
BITMAP
60
F0
F0
60
ENDCHAR
STARTCHAR c
ENCODING 99
SWIDTH 460 0
DWIDTH 6 0
BBX 5 6 1 0
BITMAP
70
88
80
80
88
70
ENDCHAR
STARTCHAR caron
ENCODING -1
SWIDTH 420 0
DWIDTH 5 0
BBX 3 2 1 7
BITMAP
A0
40
ENDCHAR
STARTCHAR ccedilla
ENCODING 231
SWIDTH 460 0
DWIDTH 6 0
BBX 5 9 1 -3
BITMAP
70
88
80
80
88
70
20
10
60
ENDCHAR
STARTCHAR cedilla
ENCODING 184
SWIDTH 300 0
DWIDTH 4 0
BBX 3 3 0 -3
BITMAP
40
20
C0
ENDCHAR
STARTCHAR cent
ENCODING 162
SWIDTH 600 0
DWIDTH 7 0
BBX 5 10 1 -1
BITMAP
20
20
70
A8
A0
A0
A8
70
20
20
ENDCHAR
STARTCHAR circumflex
ENCODING -1
SWIDTH 420 0
DWIDTH 5 0
BBX 3 2 1 7
BITMAP
40
A0
ENDCHAR
STARTCHAR colon
ENCODING 58
SWIDTH 300 0
DWIDTH 4 0
BBX 1 6 2 0
BITMAP
80
80
00
00
80
80
ENDCHAR
STARTCHAR comma
ENCODING 44
SWIDTH 300 0
DWIDTH 4 0
BBX 2 3 1 -2
BITMAP
40
40
80
ENDCHAR
STARTCHAR copyright
ENCODING 169
SWIDTH 840 0
DWIDTH 10 0
BBX 9 9 1 0
BITMAP
3E00
4100
9C80
A280
A080
A280
9C80
4100
3E00
ENDCHAR
STARTCHAR currency
ENCODING 164
SWIDTH 600 0
DWIDTH 7 0
BBX 6 7 0 1
BITMAP
84
78
48
48
48
78
84
ENDCHAR
STARTCHAR d
ENCODING 100
SWIDTH 520 0
DWIDTH 7 0
BBX 5 9 1 0
BITMAP
08
08
08
78
88
88
88
98
68
ENDCHAR
STARTCHAR dagger
ENCODING -1
SWIDTH 500 0
DWIDTH 6 0
BBX 5 12 1 -3
BITMAP
20
20
20
F8
20
20
20
20
20
20
20
20
ENDCHAR
STARTCHAR daggerdbl
ENCODING -1
SWIDTH 500 0
DWIDTH 6 0
BBX 5 12 1 -3
BITMAP
20
20
20
F8
20
20
20
20
F8
20
20
20
ENDCHAR
STARTCHAR degree
ENCODING 176
SWIDTH 400 0
DWIDTH 5 0
BBX 4 4 0 5
BITMAP
60
90
90
60
ENDCHAR
STARTCHAR dieresis
ENCODING 168
SWIDTH 460 0
DWIDTH 5 0
BBX 3 1 1 8
BITMAP
A0
ENDCHAR
STARTCHAR divide
ENCODING 247
SWIDTH 660 0
DWIDTH 8 0
BBX 5 5 2 1
BITMAP
20
00
F8
00
20
ENDCHAR
STARTCHAR dollar
ENCODING 36
SWIDTH 600 0
DWIDTH 7 0
BBX 5 11 1 -1
BITMAP
20
70
A8
A8
60
30
28
A8
A8
70
20
ENDCHAR
STARTCHAR dotaccent
ENCODING -1
SWIDTH 240 0
DWIDTH 3 0
BBX 1 1 1 8
BITMAP
80
ENDCHAR
STARTCHAR dotlessi
ENCODING -1
SWIDTH 240 0
DWIDTH 3 0
BBX 1 6 1 0
BITMAP
80
80
80
80
80
80
ENDCHAR
STARTCHAR e
ENCODING 101
SWIDTH 500 0
DWIDTH 6 0
BBX 4 6 1 0
BITMAP
60
90
90
E0
80
70
ENDCHAR
STARTCHAR eacute
ENCODING 233
SWIDTH 500 0
DWIDTH 6 0
BBX 4 9 1 0
BITMAP
20
40
00
60
90
90
E0
80
70
ENDCHAR
STARTCHAR ecircumflex
ENCODING 234
SWIDTH 500 0
DWIDTH 6 0
BBX 4 9 1 0
BITMAP
20
50
00
60
90
90
E0
80
70
ENDCHAR
STARTCHAR edieresis
ENCODING 235
SWIDTH 500 0
DWIDTH 6 0
BBX 4 8 1 0
BITMAP
50
00
60
90
90
E0
80
70
ENDCHAR
STARTCHAR egrave
ENCODING 232
SWIDTH 500 0
DWIDTH 6 0
BBX 4 9 1 0
BITMAP
40
20
00
60
90
90
E0
80
70
ENDCHAR
STARTCHAR eight
ENCODING 56
SWIDTH 600 0
DWIDTH 7 0
BBX 5 9 1 0
BITMAP
70
88
88
88
70
88
88
88
70
ENDCHAR
STARTCHAR ellipsis
ENCODING -1
SWIDTH 1000 0
DWIDTH 12 0
BBX 9 1 1 0
BITMAP
8880
ENDCHAR
STARTCHAR emdash
ENCODING -1
SWIDTH 1000 0
DWIDTH 12 0
BBX 12 1 0 3
BITMAP
FFF0
ENDCHAR
STARTCHAR endash
ENCODING -1
SWIDTH 500 0
DWIDTH 6 0
BBX 6 1 0 3
BITMAP
FC
ENDCHAR
STARTCHAR equal
ENCODING 61
SWIDTH 660 0
DWIDTH 8 0
BBX 6 3 1 2
BITMAP
FC
00
FC
ENDCHAR
STARTCHAR eth
ENCODING 240
SWIDTH 570 0
DWIDTH 7 0
BBX 5 10 1 0
BITMAP
80
48
70
90
78
88
88
88
88
70
ENDCHAR
STARTCHAR exclam
ENCODING 33
SWIDTH 300 0
DWIDTH 3 0
BBX 1 9 1 0
BITMAP
80
80
80
80
80
80
80
00
80
ENDCHAR
STARTCHAR exclamdown
ENCODING 161
SWIDTH 300 0
DWIDTH 3 0
BBX 1 10 1 -3
BITMAP
80
00
80
80
80
80
80
80
80
80
ENDCHAR
STARTCHAR f
ENCODING 102
SWIDTH 300 0
DWIDTH 3 0
BBX 4 9 0 0
BITMAP
30
40
40
E0
40
40
40
40
40
ENDCHAR
STARTCHAR fi
ENCODING -1
SWIDTH 520 0
DWIDTH 7 0
BBX 5 9 1 0
BITMAP
38
40
40
E8
48
48
48
48
48
ENDCHAR
STARTCHAR five
ENCODING 53
SWIDTH 600 0
DWIDTH 7 0
BBX 5 9 1 0
BITMAP
F8
80
80
F0
08
08
88
88
70
ENDCHAR
STARTCHAR fl
ENCODING -1
SWIDTH 500 0
DWIDTH 7 0
BBX 5 9 1 0
BITMAP
38
48
48
E8
48
48
48
48
48
ENDCHAR
STARTCHAR florin
ENCODING -1
SWIDTH 600 0
DWIDTH 7 0
BBX 7 12 0 -3
BITMAP
06
08
08
08
3C
10
10
10
20
20
20
C0
ENDCHAR
STARTCHAR four
ENCODING 52
SWIDTH 600 0
DWIDTH 7 0
BBX 6 9 1 0
BITMAP
08
18
28
48
88
88
FC
08
08
ENDCHAR
STARTCHAR fraction
ENCODING -1
SWIDTH 180 0
DWIDTH 2 0
BBX 5 8 -1 0
BITMAP
08
10
10
20
20
40
40
80
ENDCHAR
STARTCHAR g
ENCODING 103
SWIDTH 520 0
DWIDTH 7 0
BBX 6 9 1 -3
BITMAP
7C
88
88
88
88
70
0C
84
78
ENDCHAR
STARTCHAR germandbls
ENCODING 223
SWIDTH 520 0
DWIDTH 7 0
BBX 5 9 1 0
BITMAP
70
88
88
88
B0
88
88
88
B0
ENDCHAR
STARTCHAR grave
ENCODING -1
SWIDTH 320 0
DWIDTH 4 0
BBX 2 2 1 7
BITMAP
80
40
ENDCHAR
STARTCHAR greater
ENCODING 62
SWIDTH 660 0
DWIDTH 8 0
BBX 6 5 1 1
BITMAP
C0
30
0C
30
C0
ENDCHAR
STARTCHAR guillemotleft
ENCODING 171
SWIDTH 340 0
DWIDTH 5 0
BBX 5 5 0 1
BITMAP
28
50
A0
50
28
ENDCHAR
STARTCHAR guillemotright
ENCODING 187
SWIDTH 340 0
DWIDTH 5 0
BBX 5 5 0 1
BITMAP
A0
50
28
50
A0
ENDCHAR
STARTCHAR guilsinglleft
ENCODING -1
SWIDTH 200 0
DWIDTH 3 0
BBX 3 5 0 1
BITMAP
20
40
80
40
20
ENDCHAR
STARTCHAR guilsinglright
ENCODING -1
SWIDTH 200 0
DWIDTH 3 0
BBX 3 5 0 1
BITMAP
80
40
20
40
80
ENDCHAR
STARTCHAR h
ENCODING 104
SWIDTH 560 0
DWIDTH 7 0
BBX 5 9 1 0
BITMAP
80
80
80
B0
C8
88
88
88
88
ENDCHAR
STARTCHAR hungarumlaut
ENCODING -1
SWIDTH 520 0
DWIDTH 6 0
BBX 4 2 1 7
BITMAP
50
A0
ENDCHAR
STARTCHAR hyphen
ENCODING 173
SWIDTH 300 0
DWIDTH 4 0
BBX 3 1 0 3
BITMAP
E0
ENDCHAR
STARTCHAR i
ENCODING 105
SWIDTH 240 0
DWIDTH 3 0
BBX 1 9 1 0
BITMAP
80
00
00
80
80
80
80
80
80
ENDCHAR
STARTCHAR iacute
ENCODING 237
SWIDTH 240 0
DWIDTH 3 0
BBX 2 9 1 0
BITMAP
40
80
00
80
80
80
80
80
80
ENDCHAR
STARTCHAR icircumflex
ENCODING 238
SWIDTH 240 0
DWIDTH 3 0
BBX 3 9 0 0
BITMAP
40
A0
00
40
40
40
40
40
40
ENDCHAR
STARTCHAR idieresis
ENCODING 239
SWIDTH 240 0
DWIDTH 3 0
BBX 3 8 0 0
BITMAP
A0
00
40
40
40
40
40
40
ENDCHAR
STARTCHAR igrave
ENCODING 236
SWIDTH 240 0
DWIDTH 3 0
BBX 2 9 0 0
BITMAP
80
40
00
40
40
40
40
40
40
ENDCHAR
STARTCHAR j
ENCODING 106
SWIDTH 220 0
DWIDTH 3 0
BBX 2 12 0 -3
BITMAP
40
00
00
40
40
40
40
40
40
40
40
80
ENDCHAR
STARTCHAR k
ENCODING 107
SWIDTH 500 0
DWIDTH 6 0
BBX 5 9 1 0
BITMAP
80
80
80
90
A0
E0
90
88
88
ENDCHAR
STARTCHAR l
ENCODING 108
SWIDTH 220 0
DWIDTH 3 0
BBX 1 9 1 0
BITMAP
80
80
80
80
80
80
80
80
80
ENDCHAR
STARTCHAR less
ENCODING 60
SWIDTH 660 0
DWIDTH 8 0
BBX 6 5 1 1
BITMAP
0C
30
C0
30
0C
ENDCHAR
STARTCHAR logicalnot
ENCODING 172
SWIDTH 660 0
DWIDTH 8 0
BBX 5 4 2 1
BITMAP
F8
08
08
08
ENDCHAR
STARTCHAR lslash
ENCODING -1
SWIDTH 220 0
DWIDTH 3 0
BBX 3 9 0 0
BITMAP
40
40
40
60
C0
40
40
40
40
ENDCHAR
STARTCHAR m
ENCODING 109
SWIDTH 840 0
DWIDTH 9 0
BBX 7 6 1 0
BITMAP
A4
DA
92
92
92
92
ENDCHAR
STARTCHAR macron
ENCODING 175
SWIDTH 380 0
DWIDTH 5 0
BBX 4 1 1 8
BITMAP
F0
ENDCHAR
STARTCHAR minus
ENCODING 45
SWIDTH 660 0
DWIDTH 8 0
BBX 5 1 2 3
BITMAP
F8
ENDCHAR
STARTCHAR mu
ENCODING 181
SWIDTH 520 0
DWIDTH 7 0
BBX 5 9 1 -3
BITMAP
88
88
88
88
98
E8
80
80
80
ENDCHAR
STARTCHAR multiply
ENCODING 215
SWIDTH 660 0
DWIDTH 8 0
BBX 5 5 2 1
BITMAP
88
50
20
50
88
ENDCHAR
STARTCHAR n
ENCODING 110
SWIDTH 560 0
DWIDTH 7 0
BBX 5 6 1 0
BITMAP
B0
C8
88
88
88
88
ENDCHAR
STARTCHAR nine
ENCODING 57
SWIDTH 600 0
DWIDTH 7 0
BBX 5 9 1 0
BITMAP
70
88
88
88
88
78
08
08
70
ENDCHAR
STARTCHAR ntilde
ENCODING 241
SWIDTH 560 0
DWIDTH 7 0
BBX 5 9 1 0
BITMAP
28
50
00
B0
C8
88
88
88
88
ENDCHAR
STARTCHAR numbersign
ENCODING 35
SWIDTH 640 0
DWIDTH 7 0
BBX 7 8 0 1
BITMAP
14
14
7E
28
28
FC
50
50
ENDCHAR
STARTCHAR o
ENCODING 111
SWIDTH 560 0
DWIDTH 7 0
BBX 5 6 1 0
BITMAP
70
88
88
88
88
70
ENDCHAR
STARTCHAR oacute
ENCODING 243
SWIDTH 560 0
DWIDTH 7 0
BBX 5 9 1 0
BITMAP
10
20
00
70
88
88
88
88
70
ENDCHAR
STARTCHAR ocircumflex
ENCODING 244
SWIDTH 560 0
DWIDTH 7 0
BBX 5 9 1 0
BITMAP
20
50
00
70
88
88
88
88
70
ENDCHAR
STARTCHAR odieresis
ENCODING 246
SWIDTH 560 0
DWIDTH 7 0
BBX 5 8 1 0
BITMAP
50
00
70
88
88
88
88
70
ENDCHAR
STARTCHAR oe
ENCODING -1
SWIDTH 900 0
DWIDTH 10 0
BBX 8 6 1 0
BITMAP
76
89
89
8E
88
77
ENDCHAR
STARTCHAR ogonek
ENCODING -1
SWIDTH 300 0
DWIDTH 4 0
BBX 2 3 1 -3
BITMAP
C0
80
40
ENDCHAR
STARTCHAR ograve
ENCODING 242
SWIDTH 560 0
DWIDTH 7 0
BBX 5 9 1 0
BITMAP
40
20
00
70
88
88
88
88
70
ENDCHAR
STARTCHAR one
ENCODING 49
SWIDTH 600 0
DWIDTH 7 0
BBX 3 9 1 0
BITMAP
20
60
A0
20
20
20
20
20
20
ENDCHAR
STARTCHAR onehalf
ENCODING 189
SWIDTH 900 0
DWIDTH 10 0
BBX 9 9 0 0
BITMAP
4200
C400
4400
4800
4B00
1480
1100
2200
2780
ENDCHAR
STARTCHAR onequarter
ENCODING 188
SWIDTH 900 0
DWIDTH 10 0
BBX 9 9 0 0
BITMAP
4200
C400
4400
4800
4900
1300
1500
2780
2100
ENDCHAR
STARTCHAR onesuperior
ENCODING 185
SWIDTH 360 0
DWIDTH 4 0
BBX 2 5 1 4
BITMAP
40
C0
40
40
40
ENDCHAR
STARTCHAR ordfeminine
ENCODING 170
SWIDTH 400 0
DWIDTH 5 0
BBX 4 6 1 3
BITMAP
C0
20
60
B0
00
F0
ENDCHAR
STARTCHAR ordmasculine
ENCODING 186
SWIDTH 400 0
DWIDTH 5 0
BBX 3 6 1 3
BITMAP
40
A0
A0
40
00
E0
ENDCHAR
STARTCHAR oslash
ENCODING 248
SWIDTH 560 0
DWIDTH 7 0
BBX 7 7 0 0
BITMAP
02
3C
44
44
44
44
B8
ENDCHAR
STARTCHAR otilde
ENCODING 245
SWIDTH 560 0
DWIDTH 7 0
BBX 5 9 1 0
BITMAP
28
50
00
70
88
88
88
88
70
ENDCHAR
STARTCHAR p
ENCODING 112
SWIDTH 580 0
DWIDTH 7 0
BBX 5 9 1 -3
BITMAP
B0
C8
88
88
C8
B0
80
80
80
ENDCHAR
STARTCHAR paragraph
ENCODING 182
SWIDTH 720 0
DWIDTH 9 0
BBX 8 12 1 -3
BITMAP
7F
8A
8A
8A
4A
3A
0A
0A
0A
0A
0A
0A
ENDCHAR
STARTCHAR parenleft
ENCODING 40
SWIDTH 240 0
DWIDTH 3 0
BBX 3 12 0 -3
BITMAP
20
40
40
80
80
80
80
80
80
40
40
20
ENDCHAR
STARTCHAR parenright
ENCODING 41
SWIDTH 240 0
DWIDTH 3 0
BBX 3 12 0 -3
BITMAP
80
40
40
20
20
20
20
20
20
40
40
80
ENDCHAR
STARTCHAR percent
ENCODING 37
SWIDTH 820 0
DWIDTH 10 0
BBX 9 9 1 0
BITMAP
6200
9200
9400
6400
0800
1300
1480
2480
2300
ENDCHAR
STARTCHAR period
ENCODING 46
SWIDTH 300 0
DWIDTH 4 0
BBX 1 2 2 0
BITMAP
80
80
ENDCHAR
STARTCHAR periodcentered
ENCODING 183
SWIDTH 300 0
DWIDTH 4 0
BBX 1 1 1 3
BITMAP
80
ENDCHAR
STARTCHAR perthousand
ENCODING -1
SWIDTH 1200 0
DWIDTH 15 0
BBX 13 9 1 0
BITMAP
6200
9200
9400
6400
0800
1330
14C8
24C8
2330
ENDCHAR
STARTCHAR plus
ENCODING 43
SWIDTH 660 0
DWIDTH 8 0
BBX 5 5 2 1
BITMAP
20
20
F8
20
20
ENDCHAR
STARTCHAR plusminus
ENCODING 177
SWIDTH 660 0
DWIDTH 8 0
BBX 5 5 2 1
BITMAP
20
F8
20
00
F8
ENDCHAR
STARTCHAR q
ENCODING 113
SWIDTH 520 0
DWIDTH 7 0
BBX 5 9 1 -3
BITMAP
68
98
88
88
98
68
08
08
08
ENDCHAR
STARTCHAR question
ENCODING 63
SWIDTH 460 0
DWIDTH 6 0
BBX 5 9 1 0
BITMAP
70
88
88
10
10
20
20
00
20
ENDCHAR
STARTCHAR questiondown
ENCODING 191
SWIDTH 460 0
DWIDTH 6 0
BBX 5 10 1 -3
BITMAP
20
00
20
20
20
40
40
88
88
70
ENDCHAR
STARTCHAR quotedbl
ENCODING 34
SWIDTH 360 0
DWIDTH 5 0
BBX 3 4 1 5
BITMAP
A0
A0
A0
A0
ENDCHAR
STARTCHAR quotedblbase
ENCODING -1
SWIDTH 460 0
DWIDTH 6 0
BBX 5 3 0 -2
BITMAP
D8
48
90
ENDCHAR
STARTCHAR quotedblleft
ENCODING -1
SWIDTH 460 0
DWIDTH 6 0
BBX 5 3 0 6
BITMAP
48
90
D8
ENDCHAR
STARTCHAR quotedblright
ENCODING -1
SWIDTH 460 0
DWIDTH 6 0
BBX 5 3 1 6
BITMAP
D8
48
90
ENDCHAR
STARTCHAR quoteleft
ENCODING 96
SWIDTH 280 0
DWIDTH 4 0
BBX 2 3 1 6
BITMAP
40
80
C0
ENDCHAR
STARTCHAR quoteright
ENCODING 39
SWIDTH 280 0
DWIDTH 4 0
BBX 2 3 1 6
BITMAP
C0
40
80
ENDCHAR
STARTCHAR quotesinglbase
ENCODING -1
SWIDTH 300 0
DWIDTH 4 0
BBX 2 3 1 -2
BITMAP
C0
40
80
ENDCHAR
STARTCHAR quotesingle
ENCODING -1
SWIDTH 160 0
DWIDTH 2 0
BBX 1 4 1 5
BITMAP
80
80
80
80
ENDCHAR
STARTCHAR r
ENCODING 114
SWIDTH 360 0
DWIDTH 4 0
BBX 3 6 1 0
BITMAP
A0
C0
80
80
80
80
ENDCHAR
STARTCHAR registered
ENCODING 174
SWIDTH 800 0
DWIDTH 10 0
BBX 9 9 1 0
BITMAP
3E00
4100
9C80
9480
9880
9480
9480
4100
3E00
ENDCHAR
STARTCHAR ring
ENCODING -1
SWIDTH 320 0
DWIDTH 4 0
BBX 4 3 0 6
BITMAP
60
90
60
ENDCHAR
STARTCHAR s
ENCODING 115
SWIDTH 400 0
DWIDTH 6 0
BBX 4 6 1 0
BITMAP
70
90
C0
30
90
E0
ENDCHAR
STARTCHAR scaron
ENCODING -1
SWIDTH 400 0
DWIDTH 6 0
BBX 4 9 1 0
BITMAP
50
20
00
70
90
C0
30
90
E0
ENDCHAR
STARTCHAR section
ENCODING 167
SWIDTH 520 0
DWIDTH 7 0
BBX 5 12 1 -3
BITMAP
70
88
80
60
90
88
88
68
10
08
88
70
ENDCHAR
STARTCHAR semicolon
ENCODING 59
SWIDTH 300 0
DWIDTH 4 0
BBX 2 8 1 -2
BITMAP
40
40
00
00
00
40
40
80
ENDCHAR
STARTCHAR seven
ENCODING 55
SWIDTH 600 0
DWIDTH 7 0
BBX 5 9 1 0
BITMAP
F8
88
08
10
10
20
20
40
40
ENDCHAR
STARTCHAR six
ENCODING 54
SWIDTH 600 0
DWIDTH 7 0
BBX 5 9 1 0
BITMAP
70
80
80
F0
88
88
88
88
70
ENDCHAR
STARTCHAR slash
ENCODING 47
SWIDTH 520 0
DWIDTH 6 0
BBX 4 12 1 -3
BITMAP
10
10
10
20
20
20
40
40
40
80
80
80
ENDCHAR
STARTCHAR space
ENCODING 32
SWIDTH 300 0
DWIDTH 4 0
BBX 1 1 0 0
BITMAP
00
ENDCHAR
STARTCHAR space
ENCODING 160
SWIDTH 300 0
DWIDTH 4 0
BBX 1 1 0 0
BITMAP
00
ENDCHAR
STARTCHAR sterling
ENCODING 163
SWIDTH 600 0
DWIDTH 7 0
BBX 5 9 1 0
BITMAP
30
48
48
40
F0
20
20
48
B0
ENDCHAR
STARTCHAR t
ENCODING 116
SWIDTH 300 0
DWIDTH 4 0
BBX 4 8 0 0
BITMAP
40
40
F0
40
40
40
40
70
ENDCHAR
STARTCHAR thorn
ENCODING 254
SWIDTH 580 0
DWIDTH 7 0
BBX 5 12 1 -3
BITMAP
80
80
80
B0
C8
88
88
C8
B0
80
80
80
ENDCHAR
STARTCHAR three
ENCODING 51
SWIDTH 600 0
DWIDTH 7 0
BBX 5 9 1 0
BITMAP
70
88
88
08
30
08
88
88
70
ENDCHAR
STARTCHAR threequarters
ENCODING 190
SWIDTH 900 0
DWIDTH 10 0
BBX 9 9 0 0
BITMAP
E200
2400
4400
2800
C900
1300
1500
2780
2100
ENDCHAR
STARTCHAR threesuperior
ENCODING 179
SWIDTH 360 0
DWIDTH 4 0
BBX 3 5 0 4
BITMAP
E0
20
40
20
C0
ENDCHAR
STARTCHAR tilde
ENCODING -1
SWIDTH 420 0
DWIDTH 5 0
BBX 4 2 1 7
BITMAP
50
A0
ENDCHAR
STARTCHAR trademark
ENCODING -1
SWIDTH 800 0
DWIDTH 11 0
BBX 11 5 0 3
BITMAP
FA20
2360
22A0
22A0
22A0
ENDCHAR
STARTCHAR two
ENCODING 50
SWIDTH 600 0
DWIDTH 7 0
BBX 5 9 1 0
BITMAP
70
88
08
10
20
40
80
80
F8
ENDCHAR
STARTCHAR twosuperior
ENCODING 178
SWIDTH 360 0
DWIDTH 4 0
BBX 4 5 0 4
BITMAP
60
90
20
40
F0
ENDCHAR
STARTCHAR u
ENCODING 117
SWIDTH 520 0
DWIDTH 7 0
BBX 5 6 1 0
BITMAP
88
88
88
88
98
68
ENDCHAR
STARTCHAR uacute
ENCODING 250
SWIDTH 520 0
DWIDTH 7 0
BBX 5 9 1 0
BITMAP
10
20
00
88
88
88
88
98
68
ENDCHAR
STARTCHAR ucircumflex
ENCODING 251
SWIDTH 520 0
DWIDTH 7 0
BBX 5 9 1 0
BITMAP
20
50
00
88
88
88
88
98
68
ENDCHAR
STARTCHAR udieresis
ENCODING 252
SWIDTH 520 0
DWIDTH 7 0
BBX 5 9 1 0
BITMAP
50
00
00
88
88
88
88
98
68
ENDCHAR
STARTCHAR ugrave
ENCODING 249
SWIDTH 520 0
DWIDTH 7 0
BBX 5 9 1 0
BITMAP
40
20
00
88
88
88
88
98
68
ENDCHAR
STARTCHAR underscore
ENCODING 95
SWIDTH 500 0
DWIDTH 6 0
BBX 6 1 0 -2
BITMAP
FC
ENDCHAR
STARTCHAR v
ENCODING 118
SWIDTH 460 0
DWIDTH 5 0
BBX 5 6 0 0
BITMAP
88
88
88
50
20
20
ENDCHAR
STARTCHAR w
ENCODING 119
SWIDTH 720 0
DWIDTH 9 0
BBX 9 6 0 0
BITMAP
8880
8880
4900
5500
2200
2200
ENDCHAR
STARTCHAR x
ENCODING 120
SWIDTH 500 0
DWIDTH 7 0
BBX 5 6 1 0
BITMAP
88
50
20
50
88
88
ENDCHAR
STARTCHAR y
ENCODING 121
SWIDTH 480 0
DWIDTH 5 0
BBX 5 9 0 -3
BITMAP
88
88
88
50
50
20
20
40
80
ENDCHAR
STARTCHAR yacute
ENCODING 253
SWIDTH 480 0
DWIDTH 5 0
BBX 5 12 0 -3
BITMAP
10
20
00
88
88
88
50
50
20
20
40
80
ENDCHAR
STARTCHAR ydieresis
ENCODING 255
SWIDTH 480 0
DWIDTH 5 0
BBX 5 11 0 -3
BITMAP
50
00
88
88
88
50
50
20
20
40
80
ENDCHAR
STARTCHAR yen
ENCODING 165
SWIDTH 600 0
DWIDTH 7 0
BBX 5 9 1 0
BITMAP
88
88
88
50
F8
20
F8
20
20
ENDCHAR
STARTCHAR z
ENCODING 122
SWIDTH 420 0
DWIDTH 5 0
BBX 4 6 1 0
BITMAP
F0
10
20
40
80
F0
ENDCHAR
STARTCHAR zcaron
ENCODING -1
SWIDTH 420 0
DWIDTH 5 0
BBX 4 9 1 0
BITMAP
A0
40
00
F0
10
20
40
80
F0
ENDCHAR
STARTCHAR zero
ENCODING 48
SWIDTH 600 0
DWIDTH 7 0
BBX 5 9 1 0
BITMAP
70
88
88
88
88
88
88
88
70
ENDCHAR
ENDFONT
